<svg width="11" height="10" viewBox="0 0 11 10" fill="none" xmlns="http://www.w3.org/2000/svg">
<path d="M10.1012 9.32251L7.47405 6.69534C8.13752 5.87975 8.4627 4.84071 8.38272 3.79233C8.30263 2.74402 7.82341 1.76643 7.04375 1.06102C6.26419 0.355671 5.24363 -0.0236721 4.19258 0.00114519C3.1415 0.0260681 2.14001 0.453228 1.39465 1.1947C0.653204 1.94009 0.226032 2.9416 0.201098 3.99263C0.176266 5.0437 0.5556 6.06424 1.26097 6.8438C1.96641 7.62346 2.944 8.10268 3.99228 8.18276C5.04059 8.26276 6.07966 7.93757 6.8953 7.27409L9.52246 9.90126C9.6282 9.99179 9.77251 10.0226 9.90593 9.98317C10.0393 9.94368 10.1437 9.83932 10.1832 9.70591C10.2226 9.5725 10.1918 9.42819 10.1013 9.32244L10.1012 9.32251ZM1.97342 6.42043C1.35731 5.80469 1.01106 4.96932 1.01087 4.0983C1.01069 3.22718 1.35658 2.39172 1.97242 1.7757C2.58834 1.15968 3.42371 0.813595 4.29483 0.813595C5.16585 0.813595 6.00131 1.15968 6.61715 1.7757C7.23307 2.39172 7.57897 3.22718 7.57878 4.0983C7.5786 4.96932 7.23225 5.80469 6.61614 6.42043C6.00305 7.04084 5.16705 7.39004 4.29483 7.39004C3.42252 7.39004 2.58651 7.04084 1.97342 6.42043Z" fill="white"/>
</svg>
