<svg xmlns="http://www.w3.org/2000/svg" xmlns:xlink="http://www.w3.org/1999/xlink" preserveAspectRatio="xMidYMid"
	 width="48" height="48" viewBox="0 0 48 48">
	<defs>
		<style>
			.cls-1 {
			fill: #516477;
			fill-rule: evenodd;
			}
		</style>
	</defs>
	<path d="M24.001,1.001 C11.317,1.001 1.001,11.317 1.001,24.000 C1.001,36.683 11.318,46.999 24.002,46.999 C36.683,46.999 46.999,36.682 46.999,23.999 C46.999,11.316 36.683,1.001 24.001,1.001 ZM17.713,19.628 L17.760,19.576 C17.948,19.439 18.039,19.228 18.005,19.004 C17.540,16.216 17.846,15.055 17.948,14.763 C18.757,12.279 21.283,11.094 21.796,10.927 C22.523,10.690 24.437,10.610 26.854,11.532 C28.675,12.226 29.505,13.222 29.663,13.428 C31.158,15.122 30.759,17.682 30.387,19.054 C30.346,19.217 30.370,19.383 30.462,19.522 L30.548,19.626 C30.657,19.773 30.753,20.341 30.429,21.548 C30.367,21.915 30.232,22.212 30.031,22.413 C29.956,22.496 29.905,22.599 29.886,22.716 C29.381,25.679 26.724,28.995 23.926,28.995 C21.552,28.995 18.841,25.944 18.354,22.719 C18.335,22.597 18.286,22.492 18.202,22.401 C17.998,22.192 17.869,21.889 17.790,21.439 C17.555,20.591 17.531,19.911 17.713,19.628 ZM12.383,32.480 C12.482,32.345 13.059,31.677 14.221,31.234 C18.345,30.007 20.010,28.240 20.010,28.240 L20.141,28.363 C21.355,29.509 22.701,30.139 23.926,30.139 C25.215,30.139 26.545,29.580 27.772,28.524 L27.869,28.441 C27.869,28.441 30.519,30.235 32.659,30.847 C34.729,31.438 35.539,32.365 35.593,32.438 C37.180,34.600 37.667,38.806 37.881,41.117 C33.964,44.297 29.039,46.049 24.004,46.049 C18.965,46.049 14.038,44.297 10.124,41.116 C10.332,38.812 10.821,34.621 12.383,32.480 ZM36.551,31.798 L36.471,31.705 C36.098,31.240 35.287,30.558 34.083,30.128 C29.990,28.665 28.895,27.442 28.895,27.442 L28.955,27.301 C29.978,26.023 30.695,24.537 30.970,23.135 L31.005,23.051 C31.293,22.691 31.474,22.265 31.547,21.800 C31.871,20.627 31.887,19.763 31.592,19.162 L31.564,19.100 L31.580,19.034 C31.944,17.515 32.292,14.667 30.548,12.688 C30.272,12.340 29.162,11.318 27.129,10.548 C25.033,9.755 23.136,9.404 21.391,9.940 C20.786,10.125 17.815,11.475 16.874,14.384 C16.720,14.796 16.400,16.054 16.811,18.807 L16.825,18.885 L16.776,18.949 C16.353,19.514 16.321,20.437 16.674,21.675 C16.764,22.223 16.942,22.661 17.208,22.993 L17.254,23.092 C17.512,24.531 18.153,25.953 19.107,27.204 L19.189,27.315 C19.189,27.315 18.162,28.874 13.856,30.146 C12.168,30.784 11.868,31.204 11.454,31.806 C10.005,33.917 9.367,37.503 9.067,40.201 C4.542,36.030 1.956,30.137 1.956,23.999 C1.956,11.842 11.845,1.953 24.004,1.953 C36.161,1.953 46.053,11.842 46.053,23.999 C46.053,30.137 43.461,36.033 38.936,40.208 C38.626,37.490 37.963,33.900 36.551,31.798 Z"
		  class="cls-1"/>
</svg>
